<?xml version="1.0" standalone="no"?>
<!DOCTYPE svg PUBLIC "-//W3C//DTD SVG 20010904//EN"
 "http://www.w3.org/TR/2001/REC-SVG-20010904/DTD/svg10.dtd">
<svg version="1.0" xmlns="http://www.w3.org/2000/svg"
 width="15.000000pt" height="15.000000pt" viewBox="0 0 15.000000 15.000000"
 preserveAspectRatio="xMidYMid meet">
<metadata>
Created by potrace 1.10, written by Peter Selinger 2001-2011
</metadata>
<g transform="translate(0.000000,15.000000) scale(0.100000,-0.100000)"
fill="#currentColor" stroke="none">
<path d="M81 119 c-18 -25 -25 -28 -37 -18 -22 18 -30 2 -9 -20 17 -19 16 -21
-11 -45 -16 -13 -25 -28 -21 -33 5 -4 20 5 33 21 24 27 26 28 45 11 22 -21 38
-13 20 9 -9 11 -6 19 19 38 l31 24 -24 22 -23 22 -23 -31z"/>
</g>
</svg>
